<?xml version="1.0" standalone="no"?>
<!DOCTYPE svg PUBLIC "-//W3C//DTD SVG 20010904//EN"
 "http://www.w3.org/TR/2001/REC-SVG-20010904/DTD/svg10.dtd">
<svg version="1.0" xmlns="http://www.w3.org/2000/svg"
 width="300.000000pt" height="283.000000pt" viewBox="0 0 300.000000 283.000000"
 preserveAspectRatio="xMidYMid meet">
<metadata>
Created by potrace 1.10, written by Peter Selinger 2001-2011
</metadata>
<g transform="translate(0.000000,283.000000) scale(0.100000,-0.100000)"
fill="#000000" stroke="none">
<path d="M1493 2429 c-123 -23 -197 -107 -198 -226 l0 -61 -118 -55 c-108 -51
-118 -54 -127 -37 -5 10 -31 28 -57 41 -128 62 -303 -10 -342 -140 -26 -87 -3
-193 52 -241 l25 -21 -49 -84 c-81 -142 -74 -135 -134 -135 -94 0 -163 -43
-201 -124 -41 -88 -29 -183 31 -253 52 -61 98 -86 163 -89 l55 -2 61 -110 62
-110 27 24 c16 13 36 24 45 24 25 -1 143 -18 167 -24 11 -3 36 -9 55 -14 23
-5 42 -18 55 -39 l20 -32 147 146 c113 113 150 144 160 136 7 -6 29 -15 48
-20 l35 -9 0 -215 0 -214 -24 -3 c-13 -2 -44 -25 -70 -51 l-46 -46 -107 54
-108 54 0 53 c0 54 -13 104 -28 104 -4 0 -2 -39 5 -87 14 -97 10 -127 -19
-147 -18 -13 -14 -17 64 -59 46 -25 100 -53 121 -63 34 -16 37 -21 37 -59 0
-57 43 -140 92 -175 56 -41 133 -57 193 -40 90 25 185 139 185 222 0 35 0 35
115 88 63 29 115 55 115 57 0 3 -9 17 -20 33 -17 24 -19 38 -13 109 3 45 10
84 15 87 11 7 10 44 -1 44 -16 0 -34 -61 -35 -118 l-1 -55 -70 -34 c-38 -18
-86 -42 -105 -52 l-34 -19 -36 40 c-19 21 -52 45 -74 52 l-39 13 -1 211 -1
211 30 7 c17 3 38 13 47 22 16 14 29 4 160 -127 78 -77 145 -141 149 -141 4 0
16 13 26 30 9 16 25 30 35 30 10 0 18 4 18 9 0 5 -64 72 -142 149 -134 133
-141 141 -124 157 9 10 20 30 23 46 l6 29 232 0 232 0 17 -45 c10 -25 29 -54
43 -65 l25 -19 -43 -78 c-70 -130 -76 -136 -117 -129 -43 7 -117 -11 -134 -32
-11 -13 -9 -14 17 -8 17 4 68 12 115 17 77 8 87 7 112 -11 15 -11 29 -20 32
-20 2 0 18 24 35 53 99 166 94 160 142 162 84 4 168 67 208 155 37 80 23 166
-37 232 -46 51 -102 77 -167 78 l-50 0 -58 99 c-71 121 -80 130 -107 106 -27
-24 -137 -22 -205 5 -16 6 -39 9 -52 5 -30 -7 -66 31 -58 63 3 12 1 39 -4 60
-5 20 -12 57 -14 82 -3 25 -8 53 -12 63 -8 19 18 67 36 67 7 0 38 14 71 30 50
26 70 30 124 29 40 -1 68 -7 75 -15 6 -8 17 -14 24 -14 22 0 74 -68 85 -112
15 -54 5 -121 -26 -177 -25 -46 -25 -57 0 -48 26 10 58 88 64 154 12 156 -122
273 -279 243 -54 -10 -113 -41 -127 -67 -7 -12 -15 -11 -47 12 -22 14 -74 43
-117 63 -74 35 -78 38 -74 67 5 47 -20 117 -60 163 -59 70 -134 97 -221 81z
m110 -45 c79 -27 137 -112 137 -200 0 -34 35 -73 88 -95 17 -8 32 -17 32 -21
0 -5 3 -7 8 -7 13 3 71 -25 75 -36 2 -5 1 -18 -2 -27 -6 -16 -10 -16 -51 5
-25 12 -48 26 -51 30 -3 5 -8 8 -10 6 -2 -1 -24 8 -48 20 -37 19 -47 21 -71
11 -16 -7 -37 -21 -47 -32 -10 -11 -35 -29 -55 -39 -21 -11 -42 -27 -47 -37
-13 -23 -16 -99 -13 -278 2 -165 8 -177 104 -208 l57 -19 38 26 c21 15 72 61
113 103 89 90 126 119 135 104 3 -6 -15 -32 -42 -59 -26 -26 -83 -85 -125
-129 l-77 -81 11 -38 c24 -86 38 -111 70 -117 53 -11 425 -7 450 5 13 6 32 28
41 50 10 22 26 50 36 61 27 28 35 66 17 83 -8 8 -20 28 -28 45 -7 16 -16 30
-20 30 -5 0 -8 6 -8 14 0 8 -4 16 -8 18 -5 2 -12 15 -16 31 -5 20 -2 29 9 33
20 8 45 -21 96 -108 44 -75 61 -88 123 -93 50 -4 118 -36 139 -65 7 -11 17
-18 20 -15 4 3 5 2 2 -2 -3 -3 0 -12 6 -19 19 -23 23 -116 6 -156 -31 -74 -98
-126 -172 -135 -56 -7 -83 -24 -107 -69 -12 -24 -26 -44 -30 -44 -5 0 -8 -5
-8 -11 0 -22 -42 -69 -61 -69 -10 0 -19 3 -19 6 0 3 20 44 45 92 25 47 45 91
45 98 0 7 -11 26 -25 42 -14 17 -32 46 -40 65 -27 65 -35 67 -272 67 -137 0
-221 -4 -237 -11 -15 -7 -36 -34 -52 -66 -33 -68 -30 -74 75 -177 112 -109
161 -163 154 -170 -19 -18 -52 5 -160 113 -121 120 -148 139 -180 123 -108
-53 -106 -50 -104 -285 1 -104 5 -197 10 -206 5 -9 26 -25 47 -36 21 -11 46
-27 55 -35 64 -60 89 -61 187 -10 59 30 102 34 102 9 0 -6 -4 -7 -10 -4 -5 3
-10 -1 -10 -9 0 -9 -5 -16 -10 -16 -18 0 -144 -62 -152 -74 -5 -6 -8 -7 -8 -1
-2 27 -29 -45 -30 -76 0 -40 -36 -97 -89 -141 -34 -30 -105 -45 -148 -32 -16
4 -31 8 -34 8 -3 1 -22 12 -42 26 -41 28 -71 82 -82 148 -8 51 -30 74 -110
113 -82 41 -107 61 -96 78 7 11 25 6 92 -28 85 -42 132 -51 146 -28 8 13 35
33 91 69 56 35 60 52 57 265 -2 157 -5 196 -18 216 -20 31 -116 64 -143 49
-11 -6 -73 -65 -139 -131 -65 -67 -122 -121 -126 -121 -4 0 -10 7 -13 16 -4
12 28 49 113 133 66 64 125 129 130 144 9 23 7 36 -13 75 -14 28 -36 53 -51
60 -17 8 -95 12 -242 12 l-216 0 -31 -34 c-17 -18 -43 -56 -57 -84 l-27 -50
22 -55 c13 -30 33 -71 46 -91 15 -26 19 -41 12 -48 -14 -14 -43 -6 -56 17 -6
11 -23 39 -38 62 -16 23 -28 46 -28 52 0 18 -52 51 -80 51 -58 0 -93 14 -137
55 -56 52 -76 115 -62 191 9 49 57 121 78 117 6 -2 11 1 11 7 0 13 66 30 117
30 37 0 46 5 74 39 17 22 30 43 29 47 -1 4 2 10 7 13 5 3 20 28 33 54 18 36
29 47 42 44 22 -6 23 0 2 20 -8 9 -13 22 -10 30 3 8 -5 26 -19 41 -54 58 -66
174 -25 247 60 107 186 133 307 65 30 -17 61 -29 69 -26 7 3 16 0 20 -6 4 -6
9 -7 13 0 3 5 45 28 92 50 98 47 132 80 126 126 -9 77 55 171 136 199 55 20
84 20 140 1z m236 -393 l115 -59 -3 -52 c-2 -33 4 -67 14 -89 l16 -37 -119
-117 c-148 -147 -155 -152 -184 -136 -13 7 -36 15 -53 19 l-30 6 -5 217 c-3
143 -2 217 5 217 20 0 89 42 108 66 10 13 19 24 20 24 1 0 54 -27 116 -59z
m308 -358 c22 -3 49 0 61 6 19 10 24 4 63 -67 23 -42 53 -91 66 -108 l24 -32
-31 -33 c-17 -19 -36 -51 -42 -71 l-11 -38 -229 0 -228 0 0 25 c0 13 -8 41
-17 60 l-17 37 134 132 135 133 26 -19 c14 -11 44 -22 66 -25z m-1109 -453
l217 0 22 -48 22 -47 -146 -143 c-138 -134 -147 -141 -164 -126 -12 11 -44 18
-89 22 -38 2 -74 10 -79 16 -5 6 -31 52 -58 101 l-49 90 38 59 c21 33 38 66
38 74 0 9 6 12 16 8 9 -3 113 -6 232 -6z"/>
<path d="M1485 2328 c-42 -15 -51 -24 -75 -73 -19 -38 -20 -49 -10 -87 24 -87
104 -128 185 -93 99 41 111 156 24 229 -17 14 -39 26 -49 26 -10 0 -24 2 -32
4 -7 3 -26 0 -43 -6z m99 -33 c95 -72 62 -205 -51 -205 -38 0 -50 5 -79 34
-38 38 -44 77 -19 126 28 53 107 77 149 45z"/>
<path d="M1255 2040 c-27 -16 -71 -36 -97 -45 -53 -18 -56 -23 -74 -125 -8
-41 -16 -86 -20 -100 -5 -22 10 -40 103 -133 59 -60 124 -123 143 -141 48 -45
90 -46 155 -3 l50 34 0 220 c0 122 -3 219 -7 216 -5 -2 -8 0 -8 5 0 4 -19 19
-42 32 -24 13 -56 34 -71 47 -37 30 -70 28 -132 -7z m120 -30 c16 -17 46 -36
67 -42 l38 -11 -2 -215 -3 -214 -39 -13 c-21 -8 -42 -19 -47 -26 -5 -8 -54 33
-153 127 -80 76 -146 143 -146 149 1 5 7 21 15 35 8 14 15 50 15 80 l0 55 103
51 c56 28 107 51 113 52 5 1 23 -12 39 -28z"/>
<path d="M830 1999 c-59 -21 -98 -131 -67 -185 41 -71 116 -92 187 -52 47 27
60 53 60 116 0 57 -18 85 -70 112 -42 22 -70 24 -110 9z m138 -54 c44 -51 20
-144 -45 -171 -45 -19 -83 -11 -119 27 -50 53 -30 145 38 173 41 18 97 5 126
-29z"/>
<path d="M965 1686 c-11 -8 -43 -16 -70 -19 -73 -7 -110 -20 -110 -37 0 -8 -2
-17 -5 -20 -9 -9 -56 -84 -75 -120 -18 -35 -29 -104 -15 -95 9 5 40 -38 63
-86 11 -24 26 -39 42 -43 15 -4 125 -6 245 -6 l220 1 18 27 c19 27 29 54 38
104 4 24 -6 39 -80 112 -199 198 -224 215 -271 182z m318 -291 c-1 -5 -7 -26
-14 -45 -6 -19 -14 -41 -15 -48 -3 -11 -50 -13 -236 -10 l-231 3 -11 38 c-6
22 -24 51 -39 67 l-28 28 50 83 c74 126 70 122 134 123 40 1 63 7 84 22 l28
22 140 -137 c77 -75 139 -140 138 -146z"/>
<path d="M1460 1431 c-53 -22 -119 -93 -122 -130 -5 -89 14 -144 69 -197 44
-43 70 -54 129 -54 59 0 105 20 145 65 45 49 62 98 54 159 -8 63 -27 99 -67
129 -67 49 -133 58 -208 28z m164 -39 c158 -91 54 -350 -121 -303 -119 32
-174 182 -96 263 63 67 143 81 217 40z"/>
<path d="M2449 1362 c-83 -41 -93 -161 -17 -228 31 -28 103 -31 144 -5 32 20
67 79 67 116 0 32 -30 88 -55 104 -38 24 -103 30 -139 13z m130 -38 c56 -46
49 -123 -15 -173 -35 -28 -76 -26 -112 4 -59 50 -65 107 -16 164 35 41 97 44
143 5z"/>
<path d="M492 1355 c-38 -16 -62 -64 -62 -122 0 -129 180 -170 240 -53 25 50
25 86 0 128 -34 56 -111 76 -178 47z m130 -25 c85 -66 39 -200 -68 -200 -62 0
-112 68 -100 134 14 74 111 112 168 66z"/>
<path d="M1466 426 c-21 -12 -36 -25 -35 -27 2 -2 -4 -15 -14 -29 -55 -79 32
-200 134 -184 115 19 153 158 63 232 -45 37 -96 40 -148 8z m134 -21 c10 -9
26 -33 35 -52 14 -29 15 -40 5 -64 -40 -96 -160 -107 -205 -19 -25 49 -19 78
25 122 37 37 44 40 81 35 22 -3 49 -13 59 -22z"/>
<path d="M2128 1993 c-21 -8 -38 -22 -38 -30 0 -8 -4 -12 -9 -9 -5 3 -14 -14
-21 -38 -10 -38 -10 -49 8 -87 28 -64 53 -82 114 -83 33 -1 53 4 55 12 3 6 10
12 16 12 20 0 57 65 57 99 0 54 -29 101 -74 122 -49 22 -60 23 -108 2z m96
-18 c60 -29 82 -99 50 -155 -43 -72 -138 -77 -178 -10 -26 45 -24 106 5 137
41 44 74 51 123 28z"/>
<path d="M692 747 c-30 -32 -42 -71 -42 -138 0 -72 16 -114 64 -167 77 -84
209 -95 304 -25 62 46 31 52 -37 6 -98 -67 -230 -23 -291 97 -28 55 -23 138
11 199 26 47 22 61 -9 28z"/>
<path d="M2349 751 c6 -11 15 -22 20 -26 12 -7 27 -109 22 -150 -7 -65 -54
-123 -134 -164 -56 -29 -104 -25 -178 14 -53 27 -72 27 -48 -1 22 -27 97 -54
147 -54 92 0 190 68 228 158 32 76 0 231 -50 240 -15 3 -16 1 -7 -17z"/>
<path d="M835 725 c-22 -8 -41 -15 -42 -15 -1 0 -11 -15 -22 -34 -26 -42 -27
-82 -1 -124 56 -91 165 -91 220 1 25 41 25 73 0 114 -36 60 -92 81 -155 58z
m96 -21 c31 -15 59 -65 59 -103 0 -33 -57 -90 -97 -97 -43 -8 -77 9 -103 52
-31 49 -26 90 14 130 39 39 77 44 127 18z"/>
<path d="M2120 717 c-33 -17 -47 -32 -58 -64 -14 -37 -14 -45 2 -88 23 -59 64
-86 125 -83 65 3 121 65 121 136 0 53 -73 122 -129 122 -10 0 -37 -10 -61 -23z
m109 -11 c57 -30 75 -89 46 -146 -20 -40 -53 -60 -95 -60 -41 1 -60 13 -89 60
-30 50 -27 81 12 117 48 46 79 53 126 29z"/>
</g>
</svg>
