<?xml version="1.0" standalone="no"?>
<!DOCTYPE svg PUBLIC "-//W3C//DTD SVG 20010904//EN"
 "http://www.w3.org/TR/2001/REC-SVG-20010904/DTD/svg10.dtd">
<svg version="1.0" xmlns="http://www.w3.org/2000/svg"
 width="300.000000pt" height="283.000000pt" viewBox="0 0 300.000000 283.000000"
 preserveAspectRatio="xMidYMid meet">
<metadata>
Created by potrace 1.10, written by Peter Selinger 2001-2011
</metadata>
<g transform="translate(0.000000,283.000000) scale(0.100000,-0.100000)"
fill="#000000" stroke="none">
<path d="M0 1415 l0 -1415 1500 0 1500 0 0 1415 0 1415 -1500 0 -1500 0 0
-1415z m1641 994 c77 -38 142 -149 133 -224 -4 -29 0 -32 74 -67 43 -20 95
-49 117 -63 32 -23 40 -24 47 -12 14 26 73 57 127 67 111 21 208 -27 256 -125
24 -48 27 -64 23 -118 -6 -66 -38 -144 -64 -154 -25 -9 -25 2 0 48 31 56 41
123 26 177 -11 44 -63 112 -85 112 -7 0 -18 6 -24 14 -7 8 -35 14 -75 15 -54
1 -74 -3 -124 -29 -33 -16 -64 -30 -71 -30 -18 0 -44 -48 -36 -67 4 -10 9 -38
12 -63 2 -25 9 -62 14 -82 5 -21 7 -48 4 -60 -8 -32 28 -70 58 -63 13 4 36 1
52 -5 68 -27 178 -29 205 -5 27 24 36 15 107 -106 l58 -99 50 0 c160 -1 269
-167 204 -310 -40 -88 -124 -151 -208 -155 -48 -2 -43 4 -142 -162 -17 -29
-33 -53 -35 -53 -3 0 -17 9 -32 20 -25 18 -35 19 -112 11 -47 -5 -98 -13 -115
-17 -26 -6 -28 -5 -17 8 17 21 91 39 134 32 41 -7 47 -1 117 129 l43 78 -25
19 c-14 11 -33 40 -43 65 l-17 45 -232 0 -232 0 -6 -29 c-3 -16 -14 -36 -23
-46 -17 -16 -10 -24 124 -157 78 -77 142 -144 142 -149 0 -5 -8 -9 -18 -9 -10
0 -26 -14 -35 -30 -10 -17 -22 -30 -26 -30 -4 0 -71 64 -149 141 -131 131
-144 141 -160 127 -9 -9 -30 -19 -47 -22 l-30 -7 1 -211 1 -211 39 -13 c22 -7
55 -31 74 -52 l36 -40 34 19 c19 10 67 34 105 52 l70 34 1 55 c1 57 19 118 35
118 11 0 12 -37 1 -44 -5 -3 -12 -42 -15 -87 -6 -71 -4 -85 13 -109 11 -16 20
-30 20 -33 0 -2 -52 -28 -115 -57 -115 -53 -115 -53 -115 -88 0 -83 -95 -197
-185 -222 -60 -17 -137 -1 -193 40 -49 35 -92 118 -92 175 0 38 -3 43 -37 59
-21 10 -75 38 -121 63 -78 42 -82 46 -64 59 29 20 33 50 19 147 -7 48 -9 87
-5 87 15 0 28 -50 28 -104 l0 -53 108 -54 107 -54 46 46 c26 26 57 49 70 51
l24 3 0 214 0 215 -35 9 c-19 5 -41 14 -48 20 -10 8 -47 -23 -160 -136 l-147
-146 -20 32 c-13 21 -32 34 -55 39 -19 5 -44 11 -55 14 -24 6 -142 23 -167 24
-9 0 -29 -11 -45 -24 l-27 -24 -62 110 -61 110 -55 2 c-65 3 -111 28 -163 89
-60 70 -72 165 -31 253 38 81 107 124 201 124 60 0 53 -7 134 135 l49 84 -25
21 c-55 48 -78 154 -52 241 39 130 214 202 342 140 26 -13 52 -31 57 -41 9
-17 19 -14 127 37 l118 55 0 61 c1 119 75 203 198 226 53 10 102 3 148 -20z
m595 -418 c45 -21 74 -68 74 -122 0 -34 -37 -99 -57 -99 -6 0 -13 -6 -16 -12
-2 -8 -22 -13 -55 -12 -61 1 -86 19 -114 83 -18 38 -18 49 -8 87 7 24 16 41
21 38 5 -3 9 1 9 9 0 15 61 46 90 46 8 0 33 -8 56 -18z m-1535 -1272 c-34 -61
-39 -144 -11 -199 61 -120 193 -164 291 -97 68 46 99 40 37 -6 -95 -70 -227
-59 -304 25 -48 53 -64 95 -64 167 0 67 12 106 42 138 31 33 35 19 9 -28z
m1692 13 c27 -46 34 -155 13 -204 -38 -90 -136 -158 -228 -158 -50 0 -125 27
-147 54 -24 28 -5 28 48 1 74 -39 122 -43 178 -14 80 41 127 99 134 164 5 41
-10 143 -22 150 -5 4 -14 15 -20 26 -19 37 23 18 44 -19z m-1445 -18 c30 -20
62 -73 62 -104 0 -56 -58 -116 -121 -126 -62 -9 -139 63 -139 130 0 22 33 95
43 96 1 0 20 7 42 15 43 16 77 12 113 -11z m1285 10 c40 -19 77 -70 77 -106 0
-71 -56 -133 -121 -136 -61 -3 -102 24 -125 83 -16 43 -16 51 -2 88 11 32 25
47 58 64 51 27 68 28 113 7z"/>
<path d="M1463 2383 c-81 -28 -145 -122 -136 -199 6 -46 -28 -79 -126 -126
-47 -22 -89 -45 -92 -50 -4 -7 -9 -6 -13 0 -4 6 -13 9 -20 6 -8 -3 -39 9 -69
26 -121 68 -247 42 -307 -65 -41 -73 -29 -189 25 -247 14 -15 22 -33 19 -41
-3 -8 2 -21 10 -30 21 -20 20 -26 -2 -20 -13 3 -24 -8 -42 -44 -13 -26 -28
-51 -33 -54 -5 -3 -8 -9 -7 -13 1 -4 -12 -25 -29 -47 -28 -34 -37 -39 -74 -39
-51 0 -117 -17 -117 -30 0 -6 -5 -9 -11 -7 -21 4 -69 -68 -78 -117 -14 -76 6
-139 62 -191 44 -41 79 -55 137 -55 28 0 80 -33 80 -51 0 -6 12 -29 28 -52 15
-23 32 -51 38 -62 13 -23 42 -31 56 -17 7 7 3 22 -12 48 -13 20 -33 61 -46 91
l-22 55 27 50 c14 28 40 66 57 84 l31 34 216 0 c147 0 225 -4 242 -12 15 -7
37 -32 51 -60 20 -39 22 -52 13 -75 -5 -15 -64 -80 -130 -144 -85 -84 -117
-121 -113 -133 3 -9 9 -16 13 -16 4 0 61 54 126 121 66 66 128 125 139 131 27
15 123 -18 143 -49 13 -20 16 -59 18 -216 3 -213 -1 -230 -57 -265 -56 -36
-83 -56 -91 -69 -14 -23 -61 -14 -146 28 -67 34 -85 39 -92 28 -11 -17 14 -37
96 -78 80 -39 102 -62 110 -113 11 -66 41 -120 82 -148 20 -14 39 -25 42 -26
3 0 18 -4 34 -8 43 -13 114 2 148 32 53 44 89 101 89 141 1 31 28 103 30 76 0
-6 3 -5 8 1 8 12 134 74 152 74 5 0 10 7 10 16 0 8 5 12 10 9 6 -3 10 -2 10 4
0 25 -43 21 -102 -9 -98 -51 -123 -50 -187 10 -9 8 -34 24 -55 35 -21 11 -42
27 -47 36 -5 9 -9 102 -10 206 -2 235 -4 232 104 285 32 16 59 -3 180 -123
108 -108 141 -131 160 -113 7 7 -42 61 -154 170 -105 103 -108 109 -75 177 16
32 37 59 52 66 16 7 100 11 237 11 237 0 245 -2 272 -67 8 -19 26 -48 40 -65
14 -16 25 -35 25 -42 0 -7 -20 -51 -45 -98 -25 -48 -45 -89 -45 -92 0 -3 9 -6
19 -6 19 0 61 47 61 69 0 6 3 11 8 11 4 0 18 20 30 44 24 45 51 62 107 69 74
9 141 61 172 135 17 40 13 133 -6 156 -6 7 -9 16 -6 19 3 4 2 5 -2 2 -3 -3
-13 4 -20 15 -21 29 -89 61 -139 65 -62 5 -79 18 -123 93 -51 87 -76 116 -96
108 -11 -4 -14 -13 -9 -33 4 -16 11 -29 16 -31 4 -2 8 -10 8 -18 0 -8 3 -14 8
-14 4 0 13 -14 20 -30 8 -17 20 -37 28 -45 18 -17 10 -55 -17 -83 -10 -11 -26
-39 -36 -61 -9 -22 -28 -44 -41 -50 -25 -12 -397 -16 -450 -5 -32 6 -46 31
-70 117 l-11 38 77 81 c42 44 99 103 125 129 27 27 45 53 42 59 -9 15 -46 -14
-135 -104 -41 -42 -92 -88 -113 -103 l-38 -26 -57 19 c-96 31 -102 43 -104
208 -3 179 0 255 13 278 5 10 26 26 47 37 20 10 45 28 55 39 10 11 31 25 47
32 24 10 34 8 71 -11 24 -12 46 -21 48 -20 2 2 7 -1 10 -6 3 -4 26 -18 51 -30
41 -21 45 -21 51 -5 3 9 4 22 2 27 -4 11 -62 39 -75 36 -5 0 -8 2 -8 7 0 4
-15 13 -32 21 -53 22 -88 61 -88 95 0 88 -58 173 -137 200 -56 19 -85 19 -140
-1z m97 -53 c10 0 32 -12 49 -26 87 -73 75 -188 -24 -229 -81 -35 -161 6 -185
93 -10 38 -9 49 10 87 12 24 26 48 33 53 19 15 71 31 85 26 8 -2 22 -4 32 -4z
m-173 -283 c15 -13 47 -34 71 -47 23 -13 42 -28 42 -32 0 -5 3 -7 8 -5 4 3 7
-94 7 -216 l0 -220 -50 -34 c-65 -43 -107 -42 -155 3 -19 18 -84 81 -143 141
-93 93 -108 111 -103 133 4 14 12 59 20 100 18 102 21 107 74 125 26 9 70 29
97 45 62 35 95 37 132 7z m-447 -57 c52 -27 70 -55 70 -112 0 -63 -13 -89 -60
-116 -53 -30 -104 -29 -144 4 -64 54 -73 113 -29 182 41 63 95 77 163 42z
m150 -345 c34 -31 99 -94 146 -141 74 -73 84 -88 80 -112 -9 -50 -19 -77 -38
-104 l-18 -27 -220 -1 c-120 0 -230 2 -245 6 -16 4 -31 19 -42 43 -23 48 -54
91 -63 86 -14 -9 -3 60 15 95 19 36 66 111 75 120 3 3 5 12 5 20 0 17 37 30
110 37 27 3 59 11 70 19 35 25 63 16 125 -41z m511 -206 c46 -16 96 -54 113
-88 23 -43 29 -121 14 -163 -17 -47 -71 -106 -114 -124 -38 -16 -111 -18 -147
-5 -61 23 -127 119 -129 186 -2 66 3 84 40 125 60 68 147 94 223 69z m987 -90
c25 -16 55 -72 55 -104 0 -37 -35 -96 -67 -116 -41 -26 -113 -23 -144 5 -104
93 -41 257 91 236 23 -3 52 -13 65 -21z m-1973 7 c40 -17 75 -68 75 -109 0
-41 -36 -104 -70 -122 -85 -44 -190 16 -190 108 0 108 85 164 185 123z m999
-938 c90 -74 52 -213 -63 -232 -102 -16 -189 105 -134 184 10 14 16 27 14 29
-1 2 14 15 35 27 52 32 103 29 148 -8z"/>
<path d="M1478 2294 c-34 -18 -58 -62 -58 -105 0 -22 10 -41 34 -65 94 -94
241 18 168 129 -38 57 -88 72 -144 41z"/>
<path d="M1223 1986 l-103 -51 0 -55 c0 -30 -7 -66 -15 -80 -8 -14 -14 -30
-15 -35 0 -6 66 -73 146 -149 99 -94 148 -135 153 -127 5 7 26 18 47 26 l39
13 3 214 2 215 -38 11 c-21 6 -51 25 -67 42 -16 16 -34 29 -39 28 -6 -1 -57
-24 -113 -52z"/>
<path d="M842 1974 c-68 -28 -88 -120 -38 -173 36 -38 74 -46 119 -27 65 27
89 120 45 171 -29 34 -85 47 -126 29z"/>
<path d="M977 1656 c-21 -15 -44 -21 -84 -22 -64 -1 -60 3 -134 -123 l-50 -83
28 -28 c15 -16 33 -45 39 -67 l11 -38 231 -3 c186 -3 233 -1 236 10 1 7 9 29
15 48 7 19 13 40 14 45 1 6 -61 71 -138 146 l-140 137 -28 -22z"/>
<path d="M1505 1411 c-107 -26 -158 -117 -121 -216 45 -117 188 -148 272 -60
112 119 5 314 -151 276z"/>
<path d="M2436 1319 c-49 -57 -43 -114 16 -164 52 -44 117 -24 154 47 36 69
-18 148 -101 148 -36 0 -48 -5 -69 -31z"/>
<path d="M491 1324 c-54 -45 -51 -129 7 -174 79 -63 201 35 162 130 -29 71
-111 93 -169 44z"/>
<path d="M1460 392 c-44 -44 -50 -73 -25 -122 45 -88 165 -77 205 19 10 24 9
35 -5 64 -23 49 -47 68 -94 74 -37 5 -44 2 -81 -35z"/>
<path d="M1703 2026 c-19 -24 -88 -66 -108 -66 -7 0 -8 -74 -5 -217 l5 -217
30 -6 c17 -4 40 -12 53 -19 29 -16 36 -11 184 136 l119 117 -16 37 c-10 22
-16 56 -14 89 l3 52 -115 59 c-62 32 -115 59 -116 59 -1 0 -10 -11 -20 -24z"/>
<path d="M1920 1544 l-134 -132 17 -37 c9 -19 17 -47 17 -60 l0 -25 228 0 229
0 11 38 c6 20 25 52 42 71 l31 33 -24 32 c-13 17 -43 66 -66 108 -39 71 -44
77 -63 67 -28 -15 -95 -5 -127 19 l-26 19 -135 -133z"/>
<path d="M790 1178 c0 -8 -17 -41 -38 -74 l-38 -59 49 -90 c27 -49 53 -95 58
-101 5 -6 41 -14 79 -16 45 -4 77 -11 89 -22 17 -15 26 -8 164 126 l146 143
-22 47 -22 48 -217 0 c-119 0 -223 3 -232 6 -10 4 -16 1 -16 -8z"/>
<path d="M2145 1980 c-11 -4 -31 -19 -44 -33 -29 -31 -31 -92 -5 -137 40 -67
135 -62 178 10 32 56 10 126 -50 155 -36 17 -50 18 -79 5z"/>
<path d="M804 686 c-40 -40 -45 -81 -14 -130 26 -43 60 -60 103 -52 40 7 97
64 97 97 0 38 -28 88 -59 103 -50 26 -88 21 -127 -18z"/>
<path d="M2150 713 c-32 -12 -80 -67 -80 -92 0 -28 33 -88 59 -108 23 -17 82
-16 109 3 28 19 52 65 52 99 0 65 -79 120 -140 98z"/>
</g>
</svg>
